<svg id="Layer_1" data-name="Layer 1" xmlns="http://www.w3.org/2000/svg" viewBox="0 0 511.98 512"><title>brain-regular-white</title><path d="M509.2,275c-20.9-47.1-48.5-151.7-73.1-186.8A207.84,207.84,0,0,0,266.1,0H192C86,0,0,86,0,192A191.14,191.14,0,0,0,64,334.8V512H320V448h64a63.1,63.1,0,0,0,63.1-63.1V320h32C503.1,320,518.6,296.2,509.2,275ZM349.3,216.8h-124a29.89,29.89,0,0,1,.7,6.7A32.56,32.56,0,0,1,193.5,256a33.68,33.68,0,0,1-13.5-2.9V287H132V257.5a32.5,32.5,0,0,1-45-30,31.24,31.24,0,0,1,2-11.1,35.68,35.68,0,0,1,1.9-70.7,39.53,39.53,0,0,1-1.3-10.4,40.84,40.84,0,0,1,40.8-40.8,40.29,40.29,0,0,1,13.5,2.3,50.92,50.92,0,0,1,93.6-3.7,41.75,41.75,0,0,1,25.3-8.8,40.93,40.93,0,0,1,39.9,32.1,40.89,40.89,0,0,1,50.6,29.3,35.65,35.65,0,0,1-4,71.1Z" fill="#fff"/></svg>