<?xml version="1.0" encoding="utf-8"?>
<!-- Generator: Adobe Illustrator 23.0.3, SVG Export Plug-In . SVG Version: 6.00 Build 0)  -->
<svg version="1.1" id="Layer_1" xmlns="http://www.w3.org/2000/svg" xmlns:xlink="http://www.w3.org/1999/xlink" x="0px" y="0px"
	 viewBox="0 0 512 512" style="enable-background:new 0 0 512 512;" xml:space="preserve">
<path fill="#296d85" d="M256,0C114.6,0,0,114.6,0,256s114.6,256,256,256s256-114.6,256-256S397.4,0,256,0z M361.4,317.9c13.4,12.4,13.4,32.3,0,43.5
	c-11.2,13.4-31.2,13.4-43.5,0l-63-60.7l-61.8,60.7c-11.2,13.4-31.2,13.4-43.5,0c-12.2-11.2-12.2-31.2,0-43.5l61.9-63l-61.9-61.8
	c-12.2-11.2-12.2-31.2,0-43.5c12.4-12.2,32.3-12.2,43.5,0l61.8,61.9l63-61.9c12.4-12.2,32.3-12.2,43.5,0c13.4,12.4,13.4,32.3,0,43.5
	L300.7,255L361.4,317.9z"/>
</svg>
