<?xml version="1.0" encoding="utf-8"?>
<!-- Generator: Adobe Illustrator 23.0.3, SVG Export Plug-In . SVG Version: 6.00 Build 0)  -->
<svg version="1.1" id="Layer_1" xmlns="http://www.w3.org/2000/svg" xmlns:xlink="http://www.w3.org/1999/xlink" x="0px" y="0px"
	 viewBox="0 0 512 512" style="enable-background:new 0 0 512 512;" xml:space="preserve">
<path fill="#296d85" d="M256,0C114.6,0,0,114.6,0,256s114.6,256,256,256s256-114.6,256-256S397.4,0,256,0z M222.8,353.4c-5.1,5.1-11.5,8.9-18.5,11
	l-59.5,17.5c-4.2,1.2-8.7,0.1-11.7-3.4c-3.1-2.6-4.2-7.1-3-11.3l17.5-59.5c2.1-7,5.8-13.3,11-18.5L273.8,174l64.2,64.2L222.8,353.4z
	 M373.1,203.1l-23.9,23.9l-64.2-64.2l23.9-23.9c12.4-12.4,32.4-12.4,44.8,0l19.5,19.5C385.5,170.7,385.5,190.8,373.1,203.1z"/>
</svg>
